<?xml version="1.0" standalone="no"?>
<!DOCTYPE svg PUBLIC "-//W3C//DTD SVG 20010904//EN"
 "http://www.w3.org/TR/2001/REC-SVG-20010904/DTD/svg10.dtd">
<svg version="1.0" xmlns="http://www.w3.org/2000/svg"
 width="1024.000000pt" height="1024.000000pt" viewBox="0 0 1024.000000 1024.000000"
 preserveAspectRatio="xMidYMid meet">

<g transform="translate(0.000000,1024.000000) scale(0.100000,-0.100000)"
fill="#000000" stroke="none">
<path d="M5520 8880 l-255 -5 -18 -38 c-11 -21 -17 -44 -14 -51 7 -18 129
-123 279 -238 l117 -91 -65 -128 c-35 -71 -64 -139 -64 -152 0 -17 -23 -42
-87 -94 -281 -228 -584 -607 -753 -943 -87 -173 -181 -436 -229 -639 -11 -46
-21 -84 -23 -85 -2 -1 -43 -17 -93 -35 -317 -118 -507 -282 -579 -499 -45
-136 -59 -240 -60 -456 l-1 -200 -120 -76 c-136 -86 -120 -64 -231 -320 -81
-187 -95 -232 -73 -246 8 -4 115 -14 239 -20 l225 -12 175 105 c96 58 205 124
243 147 59 36 88 68 74 82 -2 2 -112 -61 -244 -141 -132 -80 -248 -145 -256
-145 -20 0 -69 58 -65 78 3 14 183 127 611 383 82 49 152 89 156 89 3 0 17 -7
29 -16 l23 -16 -64 -67 c-101 -105 -176 -267 -198 -427 -11 -81 0 -258 17
-286 4 -6 25 9 49 32 l42 41 7 -216 c4 -119 10 -225 14 -236 7 -18 27 -2 164
130 86 83 159 151 162 151 3 0 6 -29 6 -65 l0 -66 41 23 c71 39 219 194 267
280 70 123 94 205 100 336 4 109 5 113 26 108 11 -2 42 -8 68 -11 61 -9 80 10
103 103 l17 71 96 -5 c96 -6 97 -6 130 -42 48 -54 98 -148 116 -218 20 -79 20
-160 -1 -289 -18 -113 -15 -135 20 -135 51 0 303 233 417 386 111 147 158 258
167 396 10 146 -29 319 -119 522 -63 144 -102 106 587 571 326 220 621 425
663 461 32 27 67 87 176 299 75 146 136 271 136 279 0 31 -26 38 -102 27 -40
-6 -170 -22 -289 -35 -164 -19 -226 -29 -255 -45 -22 -11 -138 -85 -259 -165
-121 -79 -221 -144 -222 -143 -1 1 5 52 14 112 20 132 23 586 6 680 -12 60
-11 60 17 85 29 25 50 83 93 260 l13 55 158 3 158 3 -6 -33 c-3 -18 -13 -89
-22 -158 -14 -105 -20 -129 -40 -151 -24 -26 -31 -63 -15 -88 6 -9 -1 -32 -20
-67 -27 -53 -46 -120 -37 -130 12 -11 150 -34 173 -28 21 5 25 12 25 43 0 21
-5 62 -10 92 -8 45 -7 63 5 93 14 33 14 40 1 68 -14 27 -14 42 3 152 11 66 22
142 26 169 l6 47 50 0 c51 0 89 23 89 54 0 8 2 21 6 29 3 9 -36 47 -118 113
-68 54 -247 200 -398 324 -151 124 -291 238 -311 253 l-36 27 -299 -2 c-164
-1 -414 -5 -554 -8z m870 -45 c11 -13 -2 -15 -112 -15 -100 0 -732 -23 -879
-32 -24 -1 -46 6 -70 23 l-34 24 110 6 c61 3 304 6 541 7 373 2 433 0 444 -13z
m190 -405 c116 -55 213 -100 215 -100 2 0 55 -25 118 -55 131 -62 147 -83 146
-177 -1 -90 -42 -331 -58 -336 -15 -5 -15 -12 14 214 17 126 17 145 4 180 -17
45 -18 46 -417 233 -140 66 -242 120 -242 127 0 8 2 14 4 14 2 0 99 -45 216
-100z m-912 -52 c20 -20 14 -39 -48 -147 -59 -103 -59 -104 -71 -77 -12 25 -8
37 39 132 29 57 56 104 60 104 4 0 13 -5 20 -12z m38 -182 c15 -12 17 -18 8
-33 -14 -23 -43 -23 -57 -1 -8 12 -7 21 2 32 16 20 22 20 47 2z m-128 -168
c143 -197 394 -353 642 -398 109 -20 107 -19 102 -88 l-4 -60 53 -11 c30 -6
77 -14 104 -19 l50 -8 -3 -139 c-10 -507 -146 -980 -400 -1398 -103 -169 -398
-557 -485 -636 l-25 -23 -126 31 c-68 18 -146 38 -171 46 l-47 13 -67 -64
c-120 -113 -150 -133 -182 -122 l-27 9 162 322 c194 386 236 505 236 670 0
112 -37 157 -117 142 -72 -13 -178 -147 -269 -339 -49 -103 -178 -487 -224
-664 l-11 -43 -97 51 c-54 28 -142 79 -197 114 l-100 62 1 210 c2 292 39 564
119 869 151 582 469 1086 930 1479 49 42 90 76 91 76 1 0 29 -37 62 -82z
m1412 -305 c-13 -3 -30 -12 -38 -21 -11 -15 -12 -14 -2 6 7 15 19 22 38 21 26
-2 26 -2 2 -6z m31 -143 c11 -39 10 -130 -1 -130 -5 0 -10 16 -10 35 0 46 -16
45 -24 -1 -9 -43 -32 -41 -28 3 4 41 -15 51 -23 13 -4 -16 -11 -30 -16 -30 -6
0 -7 5 -4 10 3 6 2 10 -4 10 -5 0 -12 -6 -15 -12 -15 -33 6 46 24 87 19 44 21
46 57 43 30 -2 39 -8 44 -28z m373 -403 c9 -46 59 -123 95 -145 l29 -18 -71
-139 c-58 -113 -77 -141 -95 -143 -33 -5 -70 23 -80 60 -4 17 -14 34 -22 38
-61 28 -77 40 -97 69 -15 22 -23 49 -23 77 0 32 -5 46 -19 53 -26 14 -43 61
-39 107 l3 39 125 16 c191 25 187 25 194 -14z m-329 -143 c9 -14 13 -30 8 -34
-16 -15 -586 -400 -588 -398 -3 3 45 222 48 224 1 1 115 76 252 168 l250 166
6 -50 c4 -28 14 -62 24 -76z m35 -75 c0 -38 33 -92 76 -122 l43 -30 -292 -200
c-161 -110 -358 -244 -439 -298 l-147 -98 24 52 c12 29 42 109 65 179 l43 128
109 70 c60 39 197 132 306 206 108 74 200 134 204 134 4 0 8 -9 8 -21z m154
-204 c10 -14 30 -34 47 -44 l30 -18 -33 -25 c-61 -46 -1098 -748 -1098 -743 0
2 29 58 63 124 l64 122 279 188 c153 104 356 241 449 304 94 64 173 116 176
117 4 0 14 -11 23 -25z m-2860 -437 c-4 -24 -15 -52 -25 -63 -23 -26 -44 -117
-69 -298 -11 -78 -25 -165 -31 -194 l-10 -52 -112 -55 c-170 -82 -266 -177
-360 -357 -53 -100 -52 -101 -63 83 -8 131 8 314 37 426 43 169 149 303 324
412 73 45 280 139 308 140 4 0 4 -19 1 -42z m934 -87 c3 -8 0 -11 -5 -8 -5 4
-15 -23 -22 -60 -17 -90 -85 -268 -196 -508 -136 -294 -287 -592 -293 -576 -6
17 -51 -119 -56 -171 -3 -21 -12 -48 -21 -60 l-16 -23 5 25 c3 14 10 52 16 85
25 131 150 565 230 801 100 289 248 522 327 512 15 -2 29 -9 31 -17z m780
-731 c70 -200 85 -374 44 -505 -29 -93 -93 -199 -190 -316 -79 -94 -238 -246
-247 -237 -3 3 3 25 14 49 25 58 51 184 51 252 0 50 -7 82 -58 272 -15 53 -17
76 -9 98 5 16 59 91 119 166 60 75 137 177 171 228 34 51 65 89 68 85 4 -4 21
-45 37 -92z m-1768 -45 c14 -15 20 -29 14 -34 -5 -4 -72 -46 -149 -93 -77 -47
-225 -138 -330 -203 -368 -228 -356 -222 -388 -190 -17 17 -32 104 -20 116 23
23 216 138 224 133 5 -3 9 -16 9 -29 0 -31 35 -52 56 -34 9 7 36 44 61 83 56
88 93 128 163 176 87 59 141 83 205 90 113 14 130 12 155 -15z m80 -65 l29
-21 -41 -78 c-33 -64 -38 -81 -29 -98 10 -19 -5 -30 -202 -149 -116 -70 -282
-169 -367 -221 -85 -51 -161 -93 -170 -93 -33 0 -79 39 -90 77 -22 74 -18 78
150 184 345 216 675 418 683 419 5 0 22 -9 37 -20z m131 -86 c30 -20 87 -51
127 -70 39 -18 72 -38 72 -44 0 -27 -33 -140 -41 -140 -26 0 -264 131 -281
154 -8 12 53 136 67 136 2 0 27 -16 56 -36z m499 -223 c47 -16 104 -32 127
-36 24 -4 45 -11 48 -16 7 -10 -24 -127 -34 -134 -12 -7 -155 25 -234 52 -60
21 -76 30 -72 42 9 25 69 121 75 121 3 0 43 -13 90 -29z m-432 -48 c94 -43 87
-22 61 -170 -14 -80 -6 -103 37 -103 23 0 58 41 97 115 33 62 28 60 111 30
l76 -28 0 -67 c0 -129 -57 -293 -144 -414 -51 -70 -113 -133 -122 -123 -4 4
-9 30 -11 59 -3 29 -6 59 -8 65 -3 7 -70 -52 -150 -132 -80 -80 -149 -145
-155 -145 -19 0 -25 57 -25 253 0 108 -2 197 -4 197 -2 0 -23 -16 -47 -35 -23
-19 -46 -35 -50 -35 -3 0 -4 42 -1 93 8 154 70 296 179 413 33 35 63 64 67 64
3 0 43 -17 89 -37z m174 -58 c-2 -14 -9 -25 -14 -25 -5 0 -7 3 -5 8 2 4 7 15
10 25 9 25 15 21 9 -8z m-1297 -77 c21 -10 25 -18 25 -56 0 -54 29 -105 69
-121 22 -10 27 -17 23 -36 -2 -14 5 -40 17 -61 l22 -37 -32 7 c-17 3 -53 6
-80 6 l-49 0 -29 58 c-16 31 -45 81 -64 109 l-35 53 36 84 36 85 17 -40 c10
-21 29 -44 44 -51z"/>
<path d="M5540 7463 c-111 -18 -225 -79 -300 -159 -130 -139 -172 -320 -114
-492 32 -98 71 -157 144 -226 106 -98 259 -147 394 -126 186 28 357 166 418
339 21 58 40 243 26 249 -5 2 -6 7 -3 12 8 13 -41 125 -80 184 -20 31 -58 75
-83 97 -100 89 -278 143 -402 122z m251 -85 c41 -20 92 -52 115 -72 43 -37
108 -126 119 -163 5 -18 3 -21 -16 -16 -14 4 -26 0 -34 -10 -10 -13 -18 -6
-56 51 -38 58 -106 118 -151 135 -9 3 -8 9 6 19 28 22 17 53 -19 53 -36 0 -47
-31 -19 -53 18 -14 18 -14 -1 -7 -66 23 -126 29 -187 16 -34 -7 -75 -19 -90
-27 -27 -14 -28 -14 -17 4 7 11 9 27 6 36 -9 22 -44 20 -57 -4 -8 -15 -6 -24
10 -40 11 -11 16 -20 11 -20 -18 0 -102 -84 -127 -126 -23 -39 -28 -43 -38
-28 -18 24 -50 14 -54 -17 -4 -31 22 -46 45 -27 12 10 13 7 6 -18 -4 -16 -8
-71 -8 -122 0 -78 -2 -92 -16 -92 -26 0 -45 -29 -32 -48 14 -23 44 -27 58 -8
11 14 13 13 24 -10 22 -50 67 -98 123 -135 49 -31 55 -39 43 -49 -21 -17 -19
-36 7 -54 20 -14 24 -14 41 1 10 10 16 25 14 34 -4 14 1 15 42 7 59 -12 137
-3 203 22 28 11 46 14 40 8 -16 -16 -15 -34 3 -51 13 -14 9 -17 -33 -34 -36
-14 -75 -18 -162 -18 -112 0 -116 1 -180 35 -125 68 -218 179 -250 300 -21 77
-14 188 14 264 74 197 243 310 452 303 82 -3 99 -7 165 -39z m-64 -109 c76
-28 172 -122 196 -194 21 -61 22 -174 2 -223 -30 -71 -76 -130 -128 -164 -75
-50 -116 -61 -211 -56 -131 7 -226 70 -284 187 -38 79 -38 190 0 273 33 71
103 142 171 174 69 32 172 33 254 3z m326 -226 c4 -21 2 -42 -5 -50 -6 -8 -9
-36 -5 -72 2 -32 3 -70 0 -85 -5 -26 -6 -26 -25 -9 -16 14 -23 15 -38 5 -18
-11 -19 -10 -11 11 16 41 22 131 13 180 -9 45 -9 47 14 47 12 0 26 5 29 10 11
17 22 2 28 -37z m-58 -271 c14 3 25 3 25 1 0 -23 -131 -172 -170 -193 -15 -8
-17 -6 -13 9 3 12 -3 24 -16 33 l-22 15 23 15 c36 24 94 87 114 124 17 32 19
33 26 13 6 -16 14 -20 33 -17z"/>
<path d="M6120 6977 c0 -25 4 -49 10 -52 6 -4 7 11 3 42 -8 63 -13 67 -13 10z"/>
<path d="M4961 8331 c-6 -11 -11 -33 -11 -50 0 -22 -8 -36 -30 -53 -42 -31
-39 -56 9 -75 26 -10 44 -25 51 -44 7 -16 19 -34 27 -41 13 -11 20 -7 43 20
17 21 35 32 53 32 37 0 77 17 77 33 0 8 -9 26 -21 41 -17 21 -19 34 -14 71 8
52 -6 64 -58 48 -27 -8 -39 -6 -74 14 -41 24 -42 24 -52 4z m53 -36 c23 -18
59 -19 88 -4 19 10 20 9 13 -38 -5 -39 -3 -52 9 -62 27 -23 19 -41 -18 -41
-26 0 -41 -7 -60 -30 l-25 -31 -15 35 c-10 24 -26 40 -51 50 l-37 16 31 26
c24 19 31 34 31 60 0 37 6 41 34 19z"/>
<path d="M3598 8136 c-25 -7 -58 -20 -72 -29 -35 -23 -73 -93 -81 -151 -6 -43
-14 -55 -60 -97 -122 -112 -85 -170 76 -119 l63 19 35 -21 c53 -33 142 -31
204 5 56 33 107 112 107 167 0 31 7 41 50 74 51 39 90 91 90 119 0 30 -35 39
-101 27 -34 -6 -72 -15 -85 -21 -19 -7 -34 -4 -62 10 -51 25 -109 32 -164 17z
m389 -32 c7 -20 -81 -111 -157 -162 -83 -55 -250 -140 -328 -166 -151 -52
-198 -42 -142 29 17 21 39 45 50 52 18 13 19 12 8 -18 -12 -35 -1 -49 40 -49
86 0 429 193 448 253 7 23 -10 37 -45 37 -36 0 -18 11 41 26 71 17 78 17 85
-2z m-107 -60 c0 -20 -21 -28 -31 -13 -15 24 -10 37 11 32 11 -3 20 -11 20
-19z m-400 -226 c0 -5 -9 -8 -20 -8 -19 0 -28 28 -13 43 6 7 32 -21 33 -35z
m206 -3 c-11 -8 -24 -15 -29 -15 -4 0 -5 -4 -2 -10 3 -5 -2 -10 -12 -10 -11 0
-28 -6 -38 -14 -11 -8 -25 -11 -33 -8 -8 3 14 18 54 38 78 37 87 40 60 19z"/>
<path d="M4640 7881 c-30 -26 -41 -29 -77 -24 -54 7 -62 -9 -34 -64 l19 -39
-20 -32 c-30 -47 -19 -62 45 -62 44 0 58 -4 77 -25 13 -14 32 -25 42 -25 11 0
20 9 23 25 3 14 7 35 10 48 2 12 19 30 40 41 46 25 45 50 -3 75 -33 17 -40 27
-48 63 -11 53 -29 57 -74 19z m56 -37 c5 -27 15 -41 40 -56 19 -11 34 -24 34
-28 0 -4 -16 -17 -35 -29 -27 -15 -35 -27 -35 -48 0 -42 -13 -58 -30 -38 -24
29 -67 45 -101 38 -30 -6 -32 -5 -24 18 14 45 17 97 6 103 -6 4 -11 14 -11 21
0 11 10 13 43 9 36 -5 45 -2 66 20 32 34 39 33 47 -10z"/>
<path d="M7367 7773 c-4 -3 -7 -28 -7 -55 0 -26 -4 -48 -10 -48 -5 0 -17 -12
-27 -26 -16 -25 -16 -27 2 -40 10 -8 29 -14 42 -14 16 0 27 -9 35 -27 29 -68
54 -74 86 -19 16 26 28 34 61 40 47 7 55 30 20 62 -18 16 -20 26 -15 67 8 56
-3 65 -55 43 -31 -13 -38 -13 -74 4 -45 22 -49 23 -58 13z m58 -39 c24 -15 45
-15 91 3 15 6 16 2 11 -33 -5 -32 -3 -43 19 -65 l25 -26 -43 -11 c-32 -9 -48
-19 -61 -44 l-18 -32 -22 39 c-13 22 -31 41 -42 43 -47 8 -49 12 -20 42 22 23
27 36 23 64 -4 40 2 43 37 20z"/>
<path d="M4066 7498 c-49 -13 -124 -84 -132 -125 -5 -27 -12 -33 -52 -43 -66
-16 -102 -38 -102 -60 0 -27 39 -50 98 -57 45 -5 54 -10 76 -43 30 -45 74 -74
138 -90 91 -23 209 38 237 123 10 29 18 35 62 46 130 34 124 99 -10 117 -35 4
-52 12 -56 24 -11 35 -79 90 -129 105 -56 17 -75 17 -130 3z m159 -41 c44 -24
95 -109 95 -158 0 -26 -3 -27 -82 -39 -122 -19 -276 -19 -288 0 -14 21 -2 87
24 134 43 80 166 111 251 63z m159 -123 c22 -9 20 -31 -4 -44 -26 -14 -40 -5
-40 26 0 24 13 30 44 18z m-464 -60 c0 -25 -7 -28 -34 -18 -21 8 -20 31 1 43
23 12 33 5 33 -25z m375 -64 c-12 -4 -38 -19 -58 -33 -58 -39 -162 -70 -190
-56 -27 14 -77 60 -77 71 0 4 46 8 103 9 56 0 125 4 152 9 28 4 59 8 70 8 20
1 20 1 0 -8z"/>
<path d="M4281 7350 c0 -29 1 -32 10 -17 7 11 7 23 0 35 -9 14 -10 11 -10 -18z"/>
<path d="M3460 7174 c-110 -36 -150 -65 -150 -107 0 -42 151 -477 173 -498 29
-27 63 -24 192 16 159 50 206 86 226 174 16 73 -19 161 -79 196 -25 15 -27 22
-28 73 0 68 -20 110 -70 149 -56 42 -131 42 -264 -3z m227 -1 c19 -9 46 -33
60 -54 20 -31 24 -47 22 -98 -2 -61 -2 -62 32 -80 100 -53 105 -214 9 -277
-36 -24 -245 -94 -280 -94 -32 0 -50 37 -127 264 -95 279 -98 262 62 318 121
42 169 46 222 21z"/>
<path d="M3529 7039 c-25 -9 -26 -12 -16 -50 l10 -41 40 6 c62 10 79 33 61 80
-7 18 -53 20 -95 5z m79 -31 c-4 -27 -56 -48 -69 -27 -20 32 -6 45 49 48 19 1
23 -4 20 -21z"/>
<path d="M3607 6833 c-31 -13 -36 -19 -31 -37 16 -50 24 -66 35 -66 33 0 93
27 106 47 14 21 14 26 -1 48 -19 29 -52 32 -109 8z m88 -33 c0 -20 -8 -27 -39
-38 -45 -14 -42 -15 -51 20 -6 24 -3 28 27 37 48 14 63 9 63 -19z"/>
<path d="M4166 6804 c-3 -9 -6 -24 -6 -35 0 -12 -14 -28 -35 -40 -19 -12 -35
-25 -35 -29 0 -5 14 -17 30 -27 17 -10 33 -29 36 -43 3 -14 7 -31 10 -37 5
-19 39 -16 58 6 13 14 26 18 55 14 47 -6 56 6 38 50 -13 29 -12 37 0 61 21 40
11 56 -35 56 -26 0 -45 7 -57 20 -22 24 -51 26 -59 4z m109 -48 c26 6 28 5 20
-17 -10 -32 -11 -59 -2 -85 6 -18 4 -20 -22 -16 -17 2 -39 -3 -53 -12 -31 -22
-38 -20 -38 8 0 15 -11 33 -26 45 l-27 21 27 21 c14 11 26 31 26 43 0 35 11
38 40 11 22 -21 33 -25 55 -19z"/>
<path d="M2846 6665 c-76 -29 -143 -59 -148 -67 -15 -22 -3 -78 47 -213 52
-141 66 -165 101 -165 35 0 297 99 318 120 19 18 18 21 -38 177 -68 187 -77
203 -114 202 -15 0 -90 -24 -166 -54z m246 -125 c32 -85 58 -163 58 -172 0
-11 -18 -23 -52 -36 -252 -93 -259 -95 -273 -81 -15 16 -115 285 -115 310 0 9
6 21 13 27 22 18 271 112 292 109 16 -2 31 -33 77 -157z"/>
<path d="M3505 6390 c-3 -5 -3 -25 0 -43 5 -27 2 -40 -20 -65 -33 -40 -28 -57
21 -69 26 -6 43 -17 54 -38 24 -43 47 -44 65 -1 12 28 22 36 50 42 52 9 60 26
30 62 -18 21 -25 42 -25 71 0 49 -17 60 -55 35 -25 -16 -28 -16 -61 -1 -40 20
-50 21 -59 7z"/>
<path d="M7140 6340 c-45 -45 -11 -120 55 -120 39 0 75 31 75 66 0 12 -9 33
-21 48 -26 33 -79 36 -109 6z"/>
<path d="M7983 6080 c-22 -9 -23 -13 -23 -155 l0 -147 -27 6 c-63 14 -138 -31
-149 -89 -17 -94 112 -161 204 -105 45 27 52 53 52 186 0 63 2 114 4 114 20 0
36 -16 36 -35 0 -33 10 -55 26 -55 22 0 44 42 44 86 0 36 -5 46 -42 80 -24 20
-52 55 -63 77 -22 45 -30 50 -62 37z"/>
<path d="M3258 6069 c-10 -5 -18 -20 -18 -32 0 -13 -7 -33 -16 -45 -8 -12 -14
-35 -12 -50 2 -22 9 -28 35 -30 29 -3 33 -8 54 -69 13 -36 29 -67 35 -70 6 -2
9 -15 6 -28 -11 -57 55 -98 91 -57 22 24 21 51 0 82 -10 14 -17 32 -15 40 1 8
-17 71 -41 140 -41 121 -43 125 -72 127 -16 2 -38 -2 -47 -8z m74 -46 c32 -83
71 -213 66 -218 -3 -3 -18 -7 -33 -8 -26 -2 -29 3 -50 63 -18 54 -26 66 -46
68 -50 6 -52 10 -30 48 12 19 21 43 21 53 0 23 9 31 36 31 16 0 26 -10 36 -37z
m80 -260 c39 -35 3 -96 -37 -63 -18 15 -20 66 -2 73 19 8 19 8 39 -10z"/>
<path d="M7240 6014 c-6 -14 -10 -29 -10 -35 0 -5 -15 -15 -34 -23 -18 -8 -36
-19 -40 -24 -6 -10 30 -52 45 -52 4 0 10 -18 14 -41 8 -49 28 -59 59 -30 19
18 30 20 69 15 44 -6 47 -5 47 15 0 12 -5 32 -11 43 -9 16 -7 26 11 50 29 39
20 58 -28 58 -28 0 -45 7 -62 25 -30 32 -48 32 -60 -1z"/>
<path d="M6716 5987 c-16 -12 -16 -20 -1 -137 22 -182 22 -180 -20 -180 -131
0 -174 -166 -55 -214 51 -20 65 -20 117 3 26 12 48 32 58 52 16 30 16 40 0
161 -9 71 -14 132 -11 136 12 12 41 -14 52 -46 5 -18 15 -37 21 -43 17 -17 43
30 43 79 0 48 -26 81 -88 114 -19 10 -39 32 -48 53 -15 37 -37 44 -68 22z m54
-46 c7 -18 30 -39 61 -55 27 -15 53 -36 59 -46 13 -24 13 -77 0 -85 -5 -3 -10
1 -10 9 0 35 -89 94 -103 69 -2 -5 2 -51 9 -103 21 -159 19 -197 -15 -231 -24
-24 -38 -29 -76 -29 -39 0 -52 5 -77 30 -26 26 -29 36 -24 63 4 18 18 43 31
57 21 21 35 25 80 24 64 0 62 -11 40 151 -19 140 -19 175 -1 175 7 0 19 -13
26 -29z"/>
<path d="M2851 5947 c-58 -20 -76 -56 -75 -145 2 -89 31 -360 45 -414 19 -73
97 -92 151 -38 25 25 29 37 26 66 -4 36 -4 36 68 72 l72 35 27 -21 c39 -31 80
-28 116 7 30 30 38 75 20 109 -12 22 -303 291 -339 313 -40 24 -73 29 -111 16z
m119 -54 c20 -22 20 -23 3 -9 -14 12 -23 14 -23 7 0 -6 -12 -17 -27 -23 -31
-14 -74 -58 -68 -69 3 -4 -5 -19 -17 -34 l-21 -27 18 -167 c9 -91 24 -179 32
-196 l14 -30 -22 22 c-19 19 -25 48 -47 247 -25 215 -25 227 -9 261 32 68 112
76 167 18z m265 -245 c36 -39 35 -38 -13 7 -28 27 -52 45 -52 40 0 -6 -9 -16
-21 -23 -12 -8 -18 -9 -15 -4 3 5 -8 24 -24 41 -17 17 -26 31 -21 31 11 0 9
19 -4 40 -13 21 102 -80 150 -132z m-203 55 c26 -4 51 -30 42 -44 -4 -8 -3 -9
4 -5 22 13 13 -24 -14 -59 -14 -18 -21 -36 -15 -39 5 -3 7 -15 4 -25 -4 -17
-8 -18 -24 -8 -10 6 -19 20 -19 30 0 17 -1 17 -26 1 -22 -15 -27 -15 -35 -3
-5 8 -9 10 -9 4 0 -5 -5 -3 -10 5 -8 13 -10 12 -10 -2 0 -10 7 -18 15 -18 8 0
15 -4 15 -10 0 -18 -19 -10 -36 15 -9 14 -14 33 -12 43 4 15 0 17 -23 14 -25
-4 -29 -1 -29 21 0 19 7 28 29 35 16 6 32 8 35 5 3 -4 6 2 7 13 0 18 1 18 9
-1 5 -11 9 -34 9 -51 1 -19 7 -34 17 -38 9 -3 12 -2 9 4 -4 6 16 20 45 32 l51
21 -43 46 c-24 25 -35 39 -25 31 11 -8 28 -15 39 -17z m-34 -60 c-34 -18 -38
-16 -38 22 l0 36 30 -23 30 -22 -22 -13z"/>
<path d="M3020 5696 c0 -2 8 -10 18 -17 15 -13 16 -12 3 4 -13 16 -21 21 -21
13z"/>
<path d="M2497 5800 c-36 -29 -37 -81 -2 -115 48 -49 125 -16 125 54 0 67 -71
102 -123 61z m85 -27 c23 -21 23 -45 -1 -67 -26 -24 -62 -17 -80 16 -14 24
-14 28 3 47 23 25 53 27 78 4z"/>
<path d="M7320 5563 c-66 -24 -151 -114 -173 -182 -60 -188 55 -375 246 -397
139 -16 273 78 237 166 -12 30 -54 60 -83 60 -8 0 -40 -11 -70 -25 -36 -17
-64 -24 -80 -20 -86 22 -104 170 -26 210 34 18 59 19 111 3 54 -16 101 7 118
57 25 75 -50 137 -170 142 -41 2 -81 -4 -110 -14z m209 -27 c45 -24 34 -30
-19 -11 -98 35 -203 5 -277 -78 -50 -57 -67 -114 -61 -206 4 -81 -10 -70 -19
13 -9 85 18 158 80 221 31 30 71 59 97 68 55 20 152 17 199 -7z m47 -358 c5
-7 2 -9 -8 -5 -9 3 -39 -5 -68 -19 -28 -13 -66 -24 -83 -23 -29 0 -28 2 13 13
25 6 57 19 70 29 28 20 66 22 76 5z"/>
<path d="M6573 5305 c-29 -20 -203 -429 -203 -478 0 -47 22 -63 161 -122 159
-67 237 -63 303 15 36 43 51 105 38 154 -9 37 -8 40 20 65 59 49 74 132 37
208 -27 55 -57 76 -188 129 -116 48 -136 51 -168 29z m144 -41 c171 -70 205
-102 205 -195 0 -55 -22 -99 -64 -124 -21 -12 -27 -21 -22 -33 4 -10 9 -38 12
-64 8 -89 -49 -157 -138 -166 -38 -3 -66 3 -152 38 -141 56 -168 73 -168 106
0 34 166 426 192 453 25 28 33 27 135 -15z"/>
<path d="M6665 5121 c-23 -46 -19 -58 31 -77 53 -20 77 -12 82 28 3 28 -9 41
-61 63 -36 15 -37 15 -52 -14z m65 -16 c52 -27 33 -67 -21 -45 -30 13 -33 18
-23 44 8 20 8 20 44 1z"/>
<path d="M6580 4914 c-6 -16 -13 -35 -15 -41 -5 -15 30 -40 76 -53 26 -8 37
-6 51 7 40 36 4 89 -74 108 -24 6 -29 3 -38 -21z m80 -19 c57 -30 29 -66 -35
-45 -36 12 -39 17 -29 44 8 20 27 20 64 1z"/>
<path d="M2813 5180 c-24 -10 -43 -23 -43 -28 0 -5 -16 -29 -35 -53 -33 -42
-43 -78 -29 -114 9 -23 61 -47 96 -43 30 3 30 2 81 -124 58 -141 77 -168 119
-168 62 0 109 47 99 100 -8 45 -166 418 -183 433 -26 22 -53 21 -105 -3z m95
-12 c17 -22 172 -413 172 -435 0 -24 -43 -63 -69 -63 -34 0 -52 28 -110 165
-38 90 -63 139 -72 138 -8 -1 -23 -5 -34 -8 -27 -8 -75 29 -75 57 0 28 66 116
104 139 36 22 69 24 84 7z"/>
<path d="M2471 4924 c-12 -15 -21 -37 -21 -49 0 -37 37 -75 74 -75 50 0 76 24
76 71 0 50 -27 79 -74 79 -25 0 -40 -7 -55 -26z m87 -10 c50 -34 2 -111 -53
-86 -29 14 -34 61 -9 86 19 20 34 20 62 0z"/>
<path d="M7190 4692 c-87 -11 -121 -102 -61 -163 24 -24 38 -29 78 -29 49 0
83 -13 70 -26 -4 -4 -23 -2 -43 4 -48 14 -80 1 -101 -43 -21 -45 -10 -82 34
-110 44 -27 45 -65 3 -65 -23 0 -35 9 -60 45 -36 52 -56 65 -103 65 -48 0 -82
-38 -82 -94 0 -110 156 -225 289 -214 111 9 182 90 174 198 -4 54 -2 58 24 73
57 33 89 120 69 188 -30 100 -175 186 -291 171z m148 -53 c34 -16 73 -44 86
-60 66 -78 48 -192 -38 -233 -32 -15 -34 -19 -26 -42 36 -93 -32 -204 -134
-219 -158 -24 -342 152 -258 248 8 9 24 17 34 17 24 0 78 -27 78 -40 0 -18 68
-80 89 -80 26 0 61 34 61 60 0 12 -16 30 -40 46 -32 21 -40 33 -40 56 0 62 32
82 94 58 35 -13 56 -3 56 26 0 30 -27 44 -85 44 -54 0 -95 32 -95 75 0 14 11
37 25 50 36 37 112 35 193 -6z"/>
<path d="M6384 4515 c-53 -27 -74 -56 -74 -105 0 -56 88 -92 136 -55 40 30 80
10 49 -26 -10 -10 -67 -49 -126 -86 -87 -54 -111 -74 -119 -99 -14 -41 1 -79
38 -98 31 -16 225 -56 273 -56 41 0 69 31 69 78 0 45 -19 66 -68 79 l-34 8 54
38 c125 85 133 227 19 304 -72 49 -144 54 -217 18z m186 -20 c51 -27 90 -84
90 -134 0 -69 -38 -120 -134 -178 -64 -39 -62 -46 14 -57 55 -9 70 -21 70 -57
0 -34 -23 -59 -55 -59 -32 0 -214 38 -248 52 -38 15 -53 53 -32 84 8 12 59 50
114 84 54 33 111 72 126 86 25 23 26 27 12 47 -18 27 -61 33 -92 13 -33 -21
-61 -20 -85 4 -26 26 -25 53 3 85 45 52 147 66 217 30z"/>
<path d="M7914 4247 l-120 -122 -34 37 c-43 44 -91 56 -143 35 -97 -41 -92
-177 9 -234 48 -28 89 -29 129 -5 17 10 68 62 115 115 46 54 89 96 95 94 19
-7 16 -52 -5 -75 -44 -46 4 -70 65 -32 46 28 56 58 49 143 -5 60 -3 79 10 100
17 24 16 27 -3 46 -12 12 -27 21 -35 21 -7 0 -67 -55 -132 -123z m141 66 c-4
-16 -8 -68 -9 -116 -1 -81 -3 -89 -26 -107 -34 -27 -44 -25 -24 5 18 28 13 77
-12 110 -15 19 -18 17 -87 -60 -137 -153 -161 -175 -196 -175 -44 0 -88 25
-111 63 -29 47 -25 83 10 119 28 27 36 30 73 25 41 -6 73 -32 103 -82 9 -17
24 -5 139 113 70 73 132 132 137 132 6 0 7 -11 3 -27z"/>
<path d="M6068 4343 c-14 -14 -22 -15 -43 -5 -35 16 -45 8 -45 -35 0 -20 -7
-44 -16 -54 -21 -24 -11 -49 20 -49 14 0 33 -10 44 -25 25 -32 38 -32 54 3 8
15 23 28 36 30 32 5 38 29 14 55 -11 12 -22 37 -24 56 -4 40 -17 48 -40 24z
m38 -83 c18 -16 18 -30 0 -30 -8 0 -24 -11 -34 -25 l-20 -26 -15 21 c-8 12
-24 22 -36 23 -25 2 -27 10 -6 27 9 8 12 22 8 41 -5 28 -4 30 20 24 14 -4 34
-2 44 3 15 9 18 7 21 -18 2 -16 10 -34 18 -40z"/>
<path d="M7031 3893 c-11 -10 -24 -32 -27 -50 -13 -66 86 -113 131 -63 28 31
24 79 -9 107 -32 27 -66 30 -95 6z m77 -19 c24 -17 30 -62 10 -82 -7 -7 -24
-12 -38 -12 -33 0 -50 17 -50 51 0 24 30 59 50 59 3 0 16 -7 28 -16z"/>
<path d="M5615 3854 c-161 -33 -335 -155 -416 -293 l-36 -61 -6 96 c-8 111
-28 165 -79 210 -50 44 -98 58 -176 51 -79 -6 -135 -41 -172 -107 l-25 -45 -5
-353 -5 -354 -28 -24 c-38 -32 -90 -32 -122 1 -24 23 -25 29 -26 172 -3 516
-4 536 -25 583 -76 166 -322 176 -406 17 -18 -34 -24 -64 -28 -155 l-5 -113
-50 77 c-65 99 -147 173 -249 223 -126 63 -192 75 -401 75 -150 1 -188 -2
-227 -17 -46 -18 -128 -94 -128 -119 -1 -7 -8 1 -17 17 -25 48 -63 83 -107
100 -35 13 -86 15 -322 13 l-281 -3 -48 -30 c-35 -21 -56 -45 -74 -80 l-26
-49 0 -537 0 -536 30 -48 c21 -33 47 -57 85 -79 l55 -31 275 0 c268 0 276 1
322 23 32 16 57 38 75 67 15 25 30 44 33 45 3 0 12 -13 22 -29 24 -43 91 -88
149 -100 27 -6 95 -11 150 -11 l100 0 82 -73 c98 -86 158 -131 275 -203 108
-67 137 -81 184 -89 l36 -6 4 -177 c3 -155 5 -181 23 -211 41 -70 128 -88 190
-39 48 37 55 72 55 257 0 185 -1 181 61 181 l29 0 0 -172 c0 -153 2 -176 21
-214 34 -71 74 -84 252 -84 106 0 157 4 182 14 38 16 75 68 75 105 0 21 5 19
55 -27 69 -64 142 -92 233 -92 81 0 128 12 177 46 34 22 39 24 47 10 14 -26
64 -46 111 -46 80 0 127 68 127 183 l0 48 38 -3 37 -3 5 -76 c6 -88 25 -124
78 -146 52 -21 99 -11 142 32 l35 35 5 182 5 181 60 17 c33 9 71 22 85 27 l25
11 -3 -105 c-5 -125 12 -183 62 -214 67 -41 117 -20 195 83 l50 66 97 7 c97 8
204 2 229 -13 8 -4 31 -32 52 -62 64 -91 120 -117 183 -85 68 35 87 145 55
313 -23 118 -47 183 -95 257 -36 54 -51 67 -82 76 -21 5 -43 7 -48 4 -18 -11
-11 5 17 40 l27 33 30 -22 c96 -72 251 -54 319 36 62 81 70 164 32 312 -14 53
-25 101 -25 106 0 6 14 3 31 -6 17 -8 55 -18 85 -21 l54 -6 0 -97 c0 -103 17
-180 49 -217 69 -82 198 -85 282 -6 l26 24 39 -23 c28 -16 54 -23 96 -23 110
0 183 84 195 223 l6 72 51 0 c65 0 133 33 163 78 43 66 52 186 18 252 -31 61
-104 100 -183 100 l-49 0 -5 99 c-4 84 -9 106 -31 144 -47 79 -152 109 -248
71 l-40 -17 -30 36 c-36 44 -84 61 -160 55 -47 -3 -66 -10 -96 -35 -64 -51
-77 -84 -81 -199 l-4 -102 -64 -4 c-71 -4 -104 -23 -141 -78 -13 -18 -23 -46
-23 -61 0 -49 -15 -32 -39 44 -34 105 -130 331 -175 411 -80 143 -155 196
-278 196 -92 0 -138 -20 -200 -87 -51 -56 -113 -176 -182 -355 -44 -116 -122
-349 -150 -449 l-16 -56 -44 42 c-74 72 -172 81 -268 26 -68 -39 -145 -35
-203 11 -40 31 -75 113 -75 175 0 63 13 99 48 136 65 69 142 78 242 27 56 -28
71 -32 126 -28 120 8 193 91 202 233 4 66 2 81 -22 130 -45 92 -150 160 -293
190 -84 18 -157 18 -248 -1z m253 -49 c71 -17 145 -52 191 -91 101 -85 91
-238 -19 -294 -54 -28 -94 -25 -168 10 -80 38 -130 46 -186 30 -100 -28 -164
-120 -173 -250 -16 -233 154 -364 351 -271 36 17 80 31 96 31 89 0 170 -83
170 -173 -1 -136 -174 -247 -385 -247 -148 0 -280 51 -389 151 -131 121 -195
263 -204 455 -6 134 12 226 64 335 45 93 168 219 259 263 124 61 270 80 393
51z m-2243 -25 c107 -33 183 -78 256 -150 112 -112 168 -240 176 -411 9 -175
-44 -342 -146 -460 -55 -64 -162 -134 -251 -166 -70 -26 -88 -28 -274 -31
-167 -3 -205 -1 -242 13 -53 20 -100 71 -114 125 -7 27 -10 192 -8 497 3 435
4 460 23 497 26 52 80 94 136 106 24 5 118 8 209 6 135 -3 178 -8 235 -26z
m738 16 c42 -17 83 -66 97 -114 6 -22 10 -167 10 -355 0 -277 2 -324 17 -354
45 -96 188 -97 240 -1 16 29 19 71 23 385 5 335 6 353 26 379 32 44 68 66 117
71 96 11 163 -23 198 -102 17 -36 19 -71 18 -360 0 -353 -8 -431 -55 -531 -55
-118 -195 -224 -332 -253 -277 -58 -530 89 -597 344 -12 48 -15 128 -15 416 0
371 2 393 43 438 45 49 141 66 210 37z m2436 -5 c55 -29 105 -89 156 -192 90
-178 171 -402 260 -713 41 -143 43 -207 8 -254 -96 -130 -295 -96 -334 57
l-13 51 -171 0 -171 0 -17 -54 c-43 -134 -196 -178 -302 -85 -43 38 -59 86
-51 154 8 73 104 393 172 578 108 292 177 411 263 457 49 26 149 26 200 1z
m-3919 -14 c49 -32 73 -79 73 -141 0 -67 -26 -120 -72 -148 -33 -21 -51 -23
-193 -26 l-158 -4 0 -48 0 -47 129 -5 c103 -4 135 -8 161 -24 55 -32 74 -67
78 -142 3 -57 0 -72 -20 -101 -42 -63 -77 -76 -213 -77 -66 -1 -124 -2 -128
-3 -4 0 -7 -25 -5 -53 l3 -53 160 -3 c182 -4 205 -11 242 -78 47 -81 25 -182
-50 -238 -27 -20 -40 -21 -316 -21 l-287 0 -37 25 c-21 14 -46 43 -57 66 -19
39 -20 62 -20 525 0 450 2 487 19 525 17 38 54 73 91 87 8 3 139 6 291 6 270
1 277 1 309 -22z m4781 -137 c58 -16 92 -60 97 -125 l5 -56 17 38 c26 58 52
76 119 81 41 3 67 -1 89 -12 52 -27 66 -66 70 -198 l4 -118 80 0 c99 0 138
-20 163 -82 30 -75 -1 -155 -71 -184 -19 -8 -67 -14 -109 -14 l-75 0 0 -106 0
-106 -39 -39 c-35 -36 -43 -39 -92 -39 -93 0 -138 41 -150 135 l-6 50 -2 -53
c-2 -105 -48 -163 -134 -170 -65 -5 -109 14 -137 61 -17 28 -20 51 -20 175 l0
142 -62 0 c-83 1 -139 26 -161 73 -22 45 -22 93 1 136 27 55 59 72 145 78 l77
6 0 103 c0 148 25 199 109 224 36 11 41 11 82 0z m-4690 -563 l-4 -198 -26 25
c-14 14 -38 29 -53 35 l-26 10 33 35 c72 77 73 256 1 350 l-25 33 45 31 c24
18 45 37 46 44 6 48 13 -202 9 -365z m3646 -684 c-3 -10 -5 -4 -5 12 0 17 2
24 5 18 2 -7 2 -21 0 -30z m287 21 c32 -12 15 -19 -40 -15 -38 2 -52 6 -43 12
16 10 60 12 83 3z m-494 -11 c0 -5 -22 -8 -50 -9 -27 -1 -47 3 -44 8 6 10 94
11 94 1z m190 -46 c63 0 160 3 216 8 l100 8 37 -32 c41 -37 67 -97 92 -218 22
-113 23 -219 2 -260 -33 -62 -90 -71 -140 -20 -18 17 -21 22 -7 10 14 -12 37
-25 52 -28 23 -6 18 2 -34 53 -33 33 -67 63 -76 66 -13 5 -12 2 2 -9 11 -8 15
-15 8 -15 -6 0 -19 11 -28 25 -9 13 -25 27 -36 31 -33 10 -14 14 22 4 l34 -10
-22 23 c-22 21 -29 22 -178 20 -86 -1 -171 -7 -189 -13 -38 -12 -64 -37 -40
-37 8 0 12 3 10 7 -2 4 2 7 10 7 12 0 12 -4 -2 -19 -9 -10 -22 -17 -29 -14
-10 4 -114 -92 -114 -106 0 -10 26 -4 46 11 11 8 6 2 -9 -13 -36 -34 -69 -33
-109 3 -32 28 -33 32 -36 118 -7 182 45 358 118 396 29 15 48 17 110 11 41 -4
127 -7 190 -7z m-1800 -30 c14 -7 28 -26 34 -45 7 -27 6 -38 -11 -60 -19 -26
-24 -27 -132 -30 l-111 -3 0 -44 0 -45 104 0 c112 0 121 -4 132 -56 4 -21 0
-37 -16 -56 -20 -26 -26 -27 -123 -30 l-102 -3 -3 -42 -3 -43 111 0 c104 0
112 -1 135 -25 30 -30 32 -64 4 -99 l-20 -26 -168 0 c-232 0 -215 -23 -218
298 -3 265 0 285 47 309 34 17 306 17 340 0z m495 -6 c61 -28 80 -56 76 -113
-1 -23 -40 -58 -63 -58 -10 0 -36 9 -58 20 -51 26 -93 25 -141 -2 -45 -25 -79
-85 -79 -140 0 -50 39 -117 80 -139 42 -23 105 -24 144 -4 30 16 74 19 92 7
22 -14 35 -53 29 -82 -8 -38 -48 -66 -121 -85 -107 -29 -222 3 -295 82 -156
169 -93 443 118 519 56 20 170 17 218 -5z m260 -6 c23 -22 25 -32 25 -115 l0
-90 95 0 95 0 0 90 c0 83 2 93 25 115 44 45 115 24 130 -38 4 -13 5 -135 3
-271 -3 -247 -3 -248 -27 -267 -35 -28 -85 -25 -110 7 -18 23 -21 41 -21 120
l0 94 -95 0 -95 0 0 -94 c0 -79 -3 -97 -21 -120 -26 -33 -75 -35 -107 -6 -22
20 -22 26 -22 290 l0 269 26 20 c35 28 69 26 99 -4z m-245 -250 l55 -3 2 -61
3 -61 -38 6 c-26 4 -51 -1 -85 -15 -64 -27 -89 -26 -126 5 -78 65 -5 169 99
141 19 -5 60 -11 90 -12z m1100 -139 c0 -2 -8 -10 -17 -17 -16 -13 -17 -12 -4
4 13 16 21 21 21 13z"/>
<path d="M5664 3769 c-218 -28 -412 -211 -459 -434 -46 -217 14 -435 159 -581
134 -134 312 -190 488 -153 165 35 257 130 229 236 -23 86 -103 108 -207 57
-84 -41 -176 -41 -254 1 -100 55 -150 152 -150 290 0 134 48 230 145 290 43
27 57 30 129 30 70 0 88 -4 134 -29 93 -50 170 -32 201 47 18 49 7 99 -31 143
-70 79 -232 123 -384 103z"/>
<path d="M3390 3185 l0 -275 49 0 c151 0 252 111 252 275 0 127 -55 217 -158
255 -30 11 -74 20 -98 20 l-45 0 0 -275z m157 142 c55 -29 87 -81 91 -151 6
-96 -30 -160 -112 -197 -84 -38 -82 -41 -90 144 -4 90 -5 179 -1 199 7 34 8
35 43 28 20 -4 51 -14 69 -23z"/>
<path d="M6692 3274 c-5 -10 -24 -58 -41 -106 l-30 -88 79 0 c44 0 80 1 80 3
0 9 -60 178 -68 193 -9 16 -10 16 -20 -2z"/>
<path d="M6828 2328 c-22 -18 -27 -39 -15 -62 8 -16 6 -18 -8 -12 -23 9 -65
-19 -65 -44 0 -29 29 -52 57 -45 19 4 24 2 23 -12 -4 -33 0 -42 21 -53 29 -16
69 11 69 46 0 20 4 25 16 20 41 -16 78 41 48 75 -33 36 -103 14 -91 -30 4 -17
1 -21 -19 -21 -36 0 -33 42 4 56 34 13 45 45 25 73 -16 24 -42 27 -65 9z m50
-36 c3 -16 -2 -22 -17 -22 -26 0 -36 17 -20 36 16 19 33 13 37 -14z m-73 -87
c0 -28 -29 -25 -33 3 -3 19 0 23 15 20 10 -2 18 -12 18 -23z m83 -61 c3 -22
-21 -39 -39 -28 -11 6 -12 38 -2 48 13 13 38 1 41 -20z"/>
<path d="M6334 2310 c-11 -4 -33 -22 -47 -40 -64 -76 -7 -190 94 -190 44 0
109 67 109 113 0 45 -34 95 -75 113 -39 16 -51 16 -81 4z m54 -77 c-2 -12 4
-19 20 -21 12 -2 22 -10 22 -17 0 -7 -10 -15 -22 -17 -15 -2 -24 -11 -26 -25
-5 -31 -22 -29 -22 2 0 20 -5 25 -25 25 -16 0 -25 6 -25 15 0 9 9 15 25 15 18
0 25 5 25 20 0 11 7 20 15 20 10 0 15 -7 13 -17z"/>
<path d="M6563 2262 c-29 -4 -30 -28 -1 -35 33 -9 67 25 36 35 -7 2 -23 2 -35
0z"/>
<path d="M6640 2246 c0 -17 49 -31 63 -17 15 15 -2 31 -34 31 -18 0 -29 -5
-29 -14z"/>
<path d="M6695 2160 c-51 -19 -59 -79 -14 -112 51 -38 115 21 87 79 -15 30
-45 43 -73 33z m40 -60 c0 -29 -32 -41 -41 -16 -9 24 4 48 23 44 12 -2 18 -12
18 -28z"/>
<path d="M6487 2142 c-35 -38 -5 -112 45 -112 23 0 68 43 68 65 0 24 -46 65
-73 65 -13 0 -31 -8 -40 -18z m68 -47 c0 -22 -31 -33 -47 -17 -17 17 -1 44 24
40 15 -2 23 -10 23 -23z"/>
</g>
</svg>
